<svg width="59" height="17" viewBox="0 0 59 17" fill="none" xmlns="http://www.w3.org/2000/svg">
<path d="M19.102 14L14.874 4.2H17.324L21.02 12.88H19.578L23.33 4.2H25.584L21.342 14H19.102ZM29.2717 14.112C28.469 14.112 27.755 13.944 27.1297 13.608C26.5137 13.272 26.0237 12.8147 25.6597 12.236C25.305 11.648 25.1277 10.9807 25.1277 10.234C25.1277 9.478 25.305 8.81067 25.6597 8.232C26.0237 7.644 26.5137 7.18667 27.1297 6.86C27.755 6.524 28.469 6.356 29.2717 6.356C30.065 6.356 30.7744 6.524 31.3997 6.86C32.025 7.18667 32.515 7.63933 32.8697 8.218C33.2244 8.79667 33.4017 9.46867 33.4017 10.234C33.4017 10.9807 33.2244 11.648 32.8697 12.236C32.515 12.8147 32.025 13.272 31.3997 13.608C30.7744 13.944 30.065 14.112 29.2717 14.112ZM29.2717 12.32C29.6357 12.32 29.9624 12.236 30.2517 12.068C30.541 11.9 30.7697 11.662 30.9377 11.354C31.1057 11.0367 31.1897 10.6633 31.1897 10.234C31.1897 9.79533 31.1057 9.422 30.9377 9.114C30.7697 8.806 30.541 8.568 30.2517 8.4C29.9624 8.232 29.6357 8.148 29.2717 8.148C28.9077 8.148 28.581 8.232 28.2917 8.4C28.0024 8.568 27.769 8.806 27.5917 9.114C27.4237 9.422 27.3397 9.79533 27.3397 10.234C27.3397 10.6633 27.4237 11.0367 27.5917 11.354C27.769 11.662 28.0024 11.9 28.2917 12.068C28.581 12.236 28.9077 12.32 29.2717 12.32ZM34.8615 14V3.612H37.0455V14H34.8615ZM42.1525 14.112C41.2658 14.112 40.5751 13.888 40.0805 13.44C39.5858 12.9827 39.3385 12.306 39.3385 11.41V4.802H41.5225V11.382C41.5225 11.6993 41.6065 11.9467 41.7745 12.124C41.9425 12.292 42.1711 12.376 42.4605 12.376C42.8058 12.376 43.0998 12.2827 43.3425 12.096L43.9305 13.636C43.7065 13.7947 43.4358 13.916 43.1185 14C42.8105 14.0747 42.4885 14.112 42.1525 14.112ZM38.1765 8.148V6.468H43.3985V8.148H38.1765ZM49.5303 14V12.53L49.3903 12.208V9.576C49.3903 9.10933 49.2457 8.74533 48.9563 8.484C48.6763 8.22267 48.2423 8.092 47.6543 8.092C47.253 8.092 46.8563 8.15733 46.4643 8.288C46.0817 8.40933 45.755 8.57733 45.4843 8.792L44.7003 7.266C45.111 6.97667 45.6057 6.75267 46.1843 6.594C46.763 6.43533 47.351 6.356 47.9483 6.356C49.0963 6.356 49.9877 6.62667 50.6223 7.168C51.257 7.70933 51.5743 8.554 51.5743 9.702V14H49.5303ZM47.2343 14.112C46.6463 14.112 46.1423 14.014 45.7223 13.818C45.3023 13.6127 44.9803 13.3373 44.7563 12.992C44.5323 12.6467 44.4203 12.2593 44.4203 11.83C44.4203 11.382 44.5277 10.99 44.7423 10.654C44.9663 10.318 45.3163 10.0567 45.7923 9.87C46.2683 9.674 46.889 9.576 47.6543 9.576H49.6563V10.85H47.8923C47.379 10.85 47.0243 10.934 46.8283 11.102C46.6417 11.27 46.5483 11.48 46.5483 11.732C46.5483 12.012 46.6557 12.236 46.8703 12.404C47.0943 12.5627 47.3977 12.642 47.7803 12.642C48.1443 12.642 48.471 12.558 48.7603 12.39C49.0497 12.2127 49.2597 11.956 49.3903 11.62L49.7263 12.628C49.5677 13.1133 49.2783 13.482 48.8583 13.734C48.4383 13.986 47.897 14.112 47.2343 14.112ZM53.551 14V6.468H55.637V8.596L55.343 7.98C55.567 7.448 55.9263 7.04667 56.421 6.776C56.9156 6.496 57.5176 6.356 58.227 6.356V8.372C58.1336 8.36267 58.0496 8.358 57.975 8.358C57.9003 8.34867 57.821 8.344 57.737 8.344C57.1396 8.344 56.6543 8.51667 56.281 8.862C55.917 9.198 55.735 9.72533 55.735 10.444V14H53.551Z" fill="white"/>
<path d="M0.292893 8.29289C-0.097631 8.68342 -0.097631 9.31658 0.292893 9.70711L6.65685 16.0711C7.04738 16.4616 7.68054 16.4616 8.07107 16.0711C8.46159 15.6805 8.46159 15.0474 8.07107 14.6569L2.41421 9L8.07107 3.34315C8.46159 2.95262 8.46159 2.31946 8.07107 1.92893C7.68054 1.53841 7.04738 1.53841 6.65685 1.92893L0.292893 8.29289ZM3 9V8H1V9L1 10H3V9Z" fill="white"/>
</svg>
